<svg width="24px" height="24px" viewBox="0 0 24 24" version="1.1" xmlns="http://www.w3.org/2000/svg" xmlns:xlink="http://www.w3.org/1999/xlink">
    <g stroke="none" stroke-width="1" fill="none" fill-rule="evenodd">
        <path d="M12.0007734,0 C5.37325781,0 0,5.37325781 0,12.0007734 C0,18.6282891 5.37325781,24 12.0007734,24 C18.6283125,24 24,18.6282891 24,12.0007734 C24,5.37325781 18.6283125,0 12.0007734,0 L12.0007734,0 L12.0007734,0 Z M12.0007734,22.000875 C6.47735156,22.000875 2.00067188,17.5226953 2.00067188,12.0007734 C2.00067188,6.47730469 6.47735156,2.00064844 12.0007734,2.00064844 C17.5226953,2.00064844 22.0008984,6.47730469 22.0008984,12.0007734 C22.0008984,17.5226953 17.5226953,22.000875 12.0007734,22.000875 L12.0007734,22.000875 L12.0007734,22.000875 Z M17.4111797,9.28938281 L11.9914922,14.7601641 L6.57025781,9.28938281 C6.21100781,8.92701562 5.62875,8.92701562 5.26954687,9.28938281 C4.91027344,9.65172656 4.91027344,10.240125 5.26954687,10.6024922 L11.3411484,16.7282812 C11.700375,17.090625 12.2826562,17.090625 12.6418594,16.7282812 L18.7119375,10.6024922 C19.0711875,10.240125 19.0711875,9.65172656 18.7119375,9.28938281 C18.3526875,8.92701562 17.7704766,8.92701562 17.4111797,9.28938281 L17.4111797,9.28938281 L17.4111797,9.28938281 Z" id="icon/arrow_b" fill="#484339" fill-rule="nonzero" transform="translate(12.000000, 12.000000) scale(-1, 1) rotate(90.000000) translate(-12.000000, -12.000000) "></path>
    </g>
</svg>
