{"accessors":[{"bufferView":0,"componentType":5123,"count":9216,"max":[1537],"min":[0],"type":"SCALAR"},{"bufferView":1,"componentType":5126,"count":1538,"max":[1.7320095300674438,1.7320095300674438,1.7320095300674438],"min":[-1.7320095300674438,-1.7320095300674438,-1.7320095300674438],"type":"VEC3"},{"bufferView":2,"componentType":5126,"count":1538,"max":[1.0,1.0,1.0],"min":[-1.0,-1.0,-1.0],"type":"VEC3"},{"bufferView":3,"componentType":5123,"count":558,"max":[369],"min":[0],"type":"SCALAR"},{"bufferView":4,"componentType":5126,"count":370,"max":[0.9966012239456177,1.7702175378799438,0.20316675305366516],"min":[-0.9966012239456177,-1.7933878898620605,-0.19271603226661682],"type":"VEC3"},{"bufferView":5,"componentType":5126,"count":370,"max":[1.0,0.9999999403953552,1.0],"min":[-1.0,-1.0,-1.0],"type":"VEC3"},{"bufferView":6,"componentType":5126,"count":370,"max":[0.8750000596046448,1.0],"min":[0.125,0.0],"type":"VEC2"},{"bufferView":7,"componentType":5123,"count":516,"max":[347],"min":[0],"type":"SCALAR"},{"bufferView":8,"componentType":5126,"count":348,"max":[1.0044355392456055,0.9057720303535461,0.24679237604141235],"min":[-1.0044355392456055,0.18072952330112457,-0.2363416850566864],"type":"VEC3"},{"bufferView":9,"componentType":5126,"count":348,"max":[0.9971281290054321,0.9999905824661255,0.9386962056159973],"min":[-0.9971281290054321,-0.9999824166297913,-0.9515760540962219],"type":"VEC3"},{"bufferView":10,"componentType":5126,"count":348,"max":[0.5637124180793762,1.0],"min":[0.4999999403953552,0.0],"type":"VEC2"},{"bufferView":11,"componentType":5121,"count":6,"max":[3],"min":[0],"type":"SCALAR"},{"bufferView":12,"componentType":5126,"count":4,"max":[1.0,0.0,1.0],"min":[-1.0,0.0,-1.0],"type":"VEC3"},{"bufferView":13,"componentType":5126,"count":4,"max":[0.0,1.0,-0.0],"min":[0.0,1.0,-0.0],"type":"VEC3"},{"bufferView":14,"componentType":5126,"count":4,"max":[1.0,1.0],"min":[0.0,0.0],"type":"VEC2"},{"bufferView":15,"componentType":5123,"count":2880,"max":[1983],"min":[0],"type":"SCALAR"},{"bufferView":16,"componentType":5126,"count":1984,"max":[1.000000238418579,1.0,1.0000003576278687],"min":[-0.9999998211860657,-1.0,-1.0],"type":"VEC3"},{"bufferView":17,"componentType":5126,"count":1984,"max":[0.9904382228851318,0.99513840675354,0.9904382824897766],"min":[-0.9904382228851318,-0.99513840675354,-0.9904384016990662],"type":"VEC3"},{"bufferView":18,"componentType":5126,"count":1984,"max":[1.000000238418579,1.0],"min":[0.0,0.0],"type":"VEC2"},{"bufferView":19,"componentType":5126,"count":91,"max":[3.75],"min":[0.0],"type":"SCALAR"},{"bufferView":20,"componentType":5126,"count":91,"max":[0.0,0.7071068286895752,-0.0,1.0],"min":[0.0,0.0,-0.0,0.7071067094802856],"type":"VEC4"}],"animations":[{"channels":[{"sampler":0,"target":{"node":5,"path":"rotation"}}],"extensions":{"S8S_v3d_animation_data":{"auto":false,"loop":"REPEAT","offset":0.0,"repeatCount":1.0,"repeatInfinite":false}},"name":"camera_center","samplers":[{"input":19,"interpolation":"LINEAR","output":20}]}],"asset":{"generator":"Soft8Soft Verge3D for Blender add-on","version":"2.0"},"bufferViews":[{"buffer":0,"byteLength":18432,"byteOffset":0,"target":34963},{"buffer":0,"byteLength":18456,"byteOffset":18432,"target":34962},{"buffer":0,"byteLength":18456,"byteOffset":36888,"target":34962},{"buffer":0,"byteLength":1116,"byteOffset":55344,"target":34963},{"buffer":0,"byteLength":4440,"byteOffset":56460,"target":34962},{"buffer":0,"byteLength":4440,"byteOffset":60900,"target":34962},{"buffer":0,"byteLength":2960,"byteOffset":65340,"target":34962},{"buffer":0,"byteLength":1032,"byteOffset":68300,"target":34963},{"buffer":0,"byteLength":4176,"byteOffset":69332,"target":34962},{"buffer":0,"byteLength":4176,"byteOffset":73508,"target":34962},{"buffer":0,"byteLength":2784,"byteOffset":77684,"target":34962},{"buffer":0,"byteLength":6,"byteOffset":80468,"target":34963},{"buffer":0,"byteLength":48,"byteOffset":80476,"target":34962},{"buffer":0,"byteLength":48,"byteOffset":80524,"target":34962},{"buffer":0,"byteLength":32,"byteOffset":80572,"target":34962},{"buffer":0,"byteLength":5760,"byteOffset":80604,"target":34963},{"buffer":0,"byteLength":23808,"byteOffset":86364,"target":34962},{"buffer":0,"byteLength":23808,"byteOffset":110172,"target":34962},{"buffer":0,"byteLength":15872,"byteOffset":133980,"target":34962},{"buffer":0,"byteLength":364,"byteOffset":149852},{"buffer":0,"byteLength":1456,"byteOffset":150216}],"buffers":[{"byteLength":151672,"uri":"redpocket-demo-1214.bin"}],"cameras":[{"extensions":{"S8S_v3d_camera_data":{"controls":"NONE","enablePan":true,"moveSpeed":1.0,"rotateSpeed":1.0,"viewportFitInitialAspect":0.5625,"viewportFitType":"AUTO"}},"name":"Camera","perspective":{"aspectRatio":0.5625,"yfov":0.7970448732376099,"zfar":100.0,"znear":0.10000000149011612},"type":"perspective"}],"extensions":{"S8S_v3d_data":{"lights":[{"color":[1.0,1.0,1.0],"constantAttenuation":1.0,"decay":2,"distance":10.00000011175871,"intensity":100.0,"linearAttenuation":0.0,"name":"Lamp","profile":"blender","quadraticAttenuation":0.0999999988824129,"shadow":{"bias":-0.0018,"cameraFar":10.00000011175871,"cameraFov":0,"cameraNear":1.0007989406585693,"enabled":true,"expBias":2.5,"mapSize":512,"radius":1.0,"slopeScaledBias":2.5},"type":"point"}]}},"extensionsUsed":["S8S_v3d_texture_data","S8S_v3d_material_data","S8S_v3d_camera_data","S8S_v3d_data","S8S_v3d_mesh_data","S8S_v3d_node_data","S8S_v3d_animation_data","S8S_v3d_scene_data"],"images":[{"uri":"environment.hdr"}],"materials":[{"alphaMode":"BLEND","doubleSided":true,"extensions":{"S8S_v3d_material_data":{"blendMode":{"blendEquation":32774,"dstRGB":771,"srcRGB":1},"depthWrite":false,"nodeGraph":{"edges":[{"fromNode":1,"fromOutput":0,"toInput":1,"toNode":0},{"fromNode":2,"fromOutput":0,"toInput":0,"toNode":0}],"nodes":[{"inputs":[[0,0,0,0],[0,0,0,0],[0.0,0.0,0.0]],"is_active_output":true,"name":"Material Output","outputs":[],"type":"OUTPUT_MATERIAL_BL"},{"inputs":[[0.3843751847743988,0.2960485816001892,0.2960485816001892,1.0]],"is_active_output":false,"name":"Transparent BSDF.001","outputs":[[0,0,0,0]],"type":"BSDF_TRANSPARENT_BL"},{"inputs":[[0.800000011920929,0.800000011920929,0.800000011920929,1.0],0.0,[1.0,0.20000000298023224,0.10000000149011612],[0.800000011920929,0.800000011920929,0.800000011920929,1.0],0.0,0.5,0.0,0.5,0.0,0.0,0.0,0.5,0.0,0.029999999329447746,1.4500000476837158,0.0,0.0,[0.0,0.0,0.0,1.0],1.0,[0.0,0.0,0.0],[0.0,0.0,0.0],[0.0,0.0,0.0]],"is_active_output":false,"name":"Principled BSDF","outputs":[[0,0,0,0]],"type":"BSDF_PRINCIPLED_BL"}]},"renderSide":"DOUBLE","useCastShadows":false}},"name":"hit_mat"},{"extensions":{"S8S_v3d_material_data":{"nodeGraph":{"edges":[{"fromNode":1,"fromOutput":0,"toInput":0,"toNode":0}],"nodes":[{"inputs":[[0,0,0,0],[0,0,0,0],[0.0,0.0,0.0]],"is_active_output":true,"name":"Material Output","outputs":[],"type":"OUTPUT_MATERIAL_BL"},{"inputs":[[0.31853801012039185,0.2524919807910919,0.06318800151348114,1.0],0.0,[1.0,0.20000000298023224,0.10000000149011612],[0.800000011920929,0.800000011920929,0.800000011920929,1.0],1.0,0.5,0.0,0.5,0.0,0.0,0.0,0.5,0.0,0.029999999329447746,1.4500000476837158,0.0,0.0,[0.0,0.0,0.0,1.0],1.0,[0.0,0.0,0.0],[0.0,0.0,0.0],[0.0,0.0,0.0]],"is_active_output":false,"name":"Principled BSDF","outputs":[[0,0,0,0]],"type":"BSDF_PRINCIPLED_BL"}]},"useCastShadows":true}},"name":"Material.001"},{"extensions":{"S8S_v3d_material_data":{"nodeGraph":{"edges":[{"fromNode":1,"fromOutput":0,"toInput":0,"toNode":0}],"nodes":[{"inputs":[[0,0,0,0],[0,0,0,0],[0.0,0.0,0.0]],"is_active_output":true,"name":"Material Output","outputs":[],"type":"OUTPUT_MATERIAL_BL"},{"inputs":[[0.31853801012039185,0.2524919807910919,0.06318800151348114,1.0],0.0,[1.0,0.20000000298023224,0.10000000149011612],[0.800000011920929,0.800000011920929,0.800000011920929,1.0],1.0,0.5,0.0,0.5,0.0,0.0,0.0,0.5,0.0,0.029999999329447746,1.4500000476837158,0.0,0.0,[0.0,0.0,0.0,1.0],1.0,[0.0,0.0,0.0],[0.0,0.0,0.0],[0.0,0.0,0.0]],"is_active_output":false,"name":"Principled BSDF","outputs":[[0,0,0,0]],"type":"BSDF_PRINCIPLED_BL"}]},"useCastShadows":true}},"name":"Material.004"},{"extensions":{"S8S_v3d_material_data":{"nodeGraph":{"edges":[{"fromNode":1,"fromOutput":0,"toInput":0,"toNode":0}],"nodes":[{"inputs":[[0,0,0,0],[0,0,0,0],[0.0,0.0,0.0]],"is_active_output":true,"name":"Material Output","outputs":[],"type":"OUTPUT_MATERIAL_BL"},{"inputs":[[0.5488521456718445,0.02859482169151306,0.02859482169151306,1.0],0.0,[1.0,0.20000000298023224,0.10000000149011612],[0.800000011920929,0.800000011920929,0.800000011920929,1.0],0.9083333611488342,0.5,0.0,0.5,0.0,0.0,0.0,0.5,0.0,0.029999999329447746,1.4500000476837158,0.0,0.0,[0.0,0.0,0.0,1.0],1.0,[0.0,0.0,0.0],[0.0,0.0,0.0],[0.0,0.0,0.0]],"is_active_output":false,"name":"Principled BSDF","outputs":[[0,0,0,0]],"type":"BSDF_PRINCIPLED_BL"}]},"useCastShadows":true}},"name":"Red pocket"},{"extensions":{"S8S_v3d_material_data":{"dithering":true,"nodeGraph":{"edges":[{"fromNode":1,"fromOutput":0,"toInput":0,"toNode":0},{"fromNode":2,"fromOutput":0,"toInput":0,"toNode":4},{"fromNode":3,"fromOutput":0,"toInput":1,"toNode":4},{"fromNode":4,"fromOutput":0,"toInput":0,"toNode":1}],"nodes":[{"inputs":[[0,0,0,0],[0,0,0,0]],"is_active_output":true,"name":"World Output","outputs":[],"type":"OUTPUT_WORLD_BL"},{"inputs":[[0.05087608844041824,0.05087608844041824,0.05087608844041824,1.0],1.0],"is_active_output":false,"name":"Background","outputs":[[0,0,0,0]],"type":"BACKGROUND_BL"},{"inputs":[],"is_active_output":false,"name":"Light Path","outputs":[0.0,0.0,0.0,0.0,0.0,0.0,0.0,0.0,0.0,0.0,0.0,0.0,0.0],"type":"LIGHT_PATH_BL"},{"inputs":[[0.0,0.0,0.0]],"is_active_output":false,"name":"Environment Texture","outputs":[[0.0,0.0,0.0,0.0]],"projection":"EQUIRECTANGULAR","texture":0,"type":"TEX_ENVIRONMENT_BL"},{"blendType":"MIX","inputs":[0.5,[0.5,0.5,0.5,1.0],[0.05126946419477463,0.05126946419477463,0.05126946419477463,1.0]],"is_active_output":false,"name":"Mix","outputs":[[0.0,0.0,0.0,0.0]],"type":"MIX_RGB_BL","useClamp":false}]},"useCastShadows":true}},"name":"Verge3D_Environment_World"},{"emissiveFactor":[0.0,0.0,0.0],"extensions":{"S8S_v3d_material_data":{"nodeGraph":{"edges":[{"fromNode":1,"fromOutput":0,"toInput":0,"toNode":0}],"nodes":[{"inputs":[[0,0,0,0],[0,0,0,0],0.0],"is_active_output":true,"name":"Material Output","outputs":[],"type":"OUTPUT_MATERIAL_BL"},{"inputs":[[0.800000011920929,0.800000011920929,0.800000011920929,1.0],0.0,[0.0,0.0,0.0]],"is_active_output":false,"name":"Diffuse BSDF","outputs":[[0,0,0,0]],"type":"BSDF_DIFFUSE_BL"}]},"useCastShadows":true,"useShadows":true}},"name":"v3d_default_material"}],"meshes":[{"extensions":{"S8S_v3d_mesh_data":{"colorLayers":{},"uvLayers":{}}},"name":"Cube","primitives":[{"attributes":{"NORMAL":2,"POSITION":1},"indices":0,"material":2,"mode":4}]},{"extensions":{"S8S_v3d_mesh_data":{"colorLayers":{},"uvLayers":{"UVMap":"TEXCOORD_0"}}},"name":"Cube.004","primitives":[{"attributes":{"NORMAL":5,"POSITION":4,"TEXCOORD_0":6},"indices":3,"material":3,"mode":4},{"attributes":{"NORMAL":9,"POSITION":8,"TEXCOORD_0":10},"indices":7,"material":1,"mode":4}]},{"extensions":{"S8S_v3d_mesh_data":{"colorLayers":{},"uvLayers":{}}},"name":"Plane.002","primitives":[{"attributes":{"NORMAL":13,"POSITION":12,"TEXCOORD_0":14},"indices":11,"material":5,"mode":4}]},{"extensions":{"S8S_v3d_mesh_data":{"colorLayers":{},"uvLayers":{"UVMap":"TEXCOORD_0"}}},"name":"Sphere","primitives":[{"attributes":{"NORMAL":17,"POSITION":16,"TEXCOORD_0":18},"indices":15,"material":0,"mode":4}]}],"nodes":[{"camera":0,"extensions":{"S8S_v3d_node_data":{"frustumCulling":true,"groupNames":[],"hidden":false,"renderOrder":0}},"name":"Camera","rotation":[-0.08367757499217987,0.0017391283763572574,0.00014629101497121155,0.9964913725852966],"scale":[1.0,1.0,1.0],"translation":[0.14424699544906616,12.049221992492676,30.516979217529297]},{"extensions":{"S8S_v3d_node_data":{"frustumCulling":true,"groupNames":[],"hidden":false,"renderOrder":0}},"name":"rain-range","translation":[0.0,10.267399787902832,-0.0]},{"extensions":{"S8S_v3d_node_data":{"frustumCulling":true,"groupNames":[],"hidden":false,"renderOrder":0,"useShadows":true}},"name":"width375"},{"children":[7],"extensions":{"S8S_v3d_node_data":{"frustumCulling":true,"groupNames":[],"hidden":false,"renderOrder":0,"useShadows":true}},"mesh":1,"name":"red_pocket_groud"},{"extensions":{"S8S_v3d_node_data":{"frustumCulling":true,"groupNames":[],"hidden":false,"renderOrder":0,"useShadows":true}},"mesh":2,"name":"Plane","scale":[8.030414581298828,8.030414581298828,8.030414581298828]},{"children":[0],"extensions":{"S8S_v3d_node_data":{"frustumCulling":true,"groupNames":[],"hidden":false,"renderOrder":0}},"name":"camera_center"},{"extensions":{"S8S_v3d_node_data":{"frustumCulling":true,"groupNames":[],"hidden":false,"renderOrder":0,"useShadows":true}},"mesh":0,"name":"Cube","translation":[-2.5976884365081787,2.813797950744629,3.010972499847412]},{"extensions":{"S8S_v3d_node_data":{"frustumCulling":true,"groupNames":[],"hidden":false,"renderOrder":0,"useShadows":true}},"mesh":3,"name":"Sphere","scale":[1.826474905014038,1.826474905014038,1.826474905014038]},{"extensions":{"S8S_v3d_node_data":{"frustumCulling":true,"groupNames":["Collection 1"],"hidden":false,"light":0,"renderOrder":0}},"name":"Lamp","rotation":[-0.2841663062572479,0.7269423604011536,0.34203389286994934,0.5232754945755005],"scale":[0.9999999403953552,0.9999997615814209,0.9999998807907104],"translation":[0.1887645721435547,2.617079734802246,-1.0054539442062378]}],"samplers":[{}],"scene":0,"scenes":[{"extensions":{"S8S_v3d_scene_data":{"aaMethod":"AUTO","iblEnvironmentMode":"PMREM","physicallyCorrectLights":true,"pmremMaxTileSize":256,"postprocessing":[{"edgeGlow":0.0,"edgeStrength":3.0,"edgeThickness":1.0,"hiddenEdgeColor":[0.10000000149011612,0.10000000149011612,0.10000000149011612,1.0],"pulsePeriod":0.0,"renderHiddenEdge":true,"type":"outline","visibleEdgeColor":[1.0,1.0,1.0,1.0]}],"shadowMap":{"esmDistanceScale":1.0,"renderReverseSided":false,"renderSingleSided":true,"type":"PCFPOISSON"},"worldMaterial":4}},"extras":{"animFrameRate":24,"coordSystem":"Z_UP_RIGHT"},"name":"Scene","nodes":[2,4,3,1,5,6,8]}],"textures":[{"extensions":{"S8S_v3d_texture_data":{"colorSpace":"linear"}},"name":"environment.hdr","sampler":0,"source":0}]}
