<?xml version="1.0" encoding="UTF-8"?>
<svg width="24px" height="24px" viewBox="0 0 24 24" version="1.1" xmlns="http://www.w3.org/2000/svg" xmlns:xlink="http://www.w3.org/1999/xlink">
    <!-- Generator: Sketch 64 (93537) - https://sketch.com -->
    <title>icon/shot</title>
    <desc>Created with Sketch.</desc>
    <g id="中奖群众展开" stroke="none" stroke-width="1" fill="none" fill-rule="evenodd">
        <path d="M11.9998499,23.9999529 C8.81376522,24.0088981 5.75657418,22.7432123 3.51008667,20.4851192 C-1.17002889,15.8063376 -1.17002889,8.19236768 3.51008667,3.51478613 C5.77690508,1.24799506 8.79172554,0 11.9998499,0 C15.2079743,0 18.2215941,1.24799508 20.4908138,3.51478613 C25.1697287,8.19236768 25.1697287,15.8063376 20.4908138,20.4851192 C18.2435773,22.7428283 15.1861918,24.0084156 11.9998499,23.9999529 L11.9998499,23.9999529 Z M11.9998499,1.79995393 C9.29139451,1.79249265 6.69254308,2.86845943 4.78277075,4.7879811 C0.805032711,8.7647654 0.805032711,15.2363399 4.78277075,19.2131242 C6.69319685,21.1315258 9.29172658,22.2069274 11.9998499,22.1999465 C14.7079733,22.2069274 17.306503,21.1315258 19.2169291,19.2131242 C23.1946671,15.2363399 23.1946671,8.7647654 19.2169291,4.7879811 C17.3070807,2.8685728 14.7082789,1.79262654 11.9998499,1.79995393 Z M16.5623022,16.5599347 C16.7313006,16.391136 16.826252,16.162131 16.826252,15.9233372 C16.826252,15.6845433 16.7313006,15.4555383 16.5623022,15.2867397 L8.71008168,7.43877064 C8.48252409,7.21133624 8.15085167,7.122513 7.84000221,7.20575976 C7.52915276,7.28900651 7.28635169,7.53167612 7.20305983,7.84235727 C7.11976798,8.15303842 7.20863934,8.48453126 7.43619695,8.71196564 L15.2884175,16.5599347 C15.4569929,16.7294326 15.6862399,16.8247412 15.9253599,16.8247412 C16.1644798,16.8247412 16.3937268,16.7294326 16.5623022,16.5599347 L16.5623022,16.5599347 Z M8.71008168,16.5599347 L16.5623022,8.71196564 C16.7898598,8.48453126 16.8787312,8.15303843 16.7954393,7.84235728 C16.7121475,7.53167613 16.4693464,7.28900653 16.158497,7.20575977 C15.8476475,7.12251301 15.5159751,7.21133625 15.2884175,7.43877064 L7.43619695,15.2867397 C7.20863936,15.5141741 7.11976801,15.8456669 7.20305987,16.156348 C7.28635173,16.4670292 7.52915279,16.7096988 7.84000224,16.7929455 C8.15085168,16.8761923 8.48252409,16.787369 8.71008168,16.5599347 L8.71008168,16.5599347 Z" id="icon/shot" fill="#977F4F" fill-rule="nonzero"></path>
    </g>
</svg>